<?xml version="1.0" encoding="utf-8"?>
<!-- Generator: Adobe Illustrator 19.2.1, SVG Export Plug-In . SVG Version: 6.00 Build 0)  -->
<svg version="1.1" id="Layer_1" xmlns="http://www.w3.org/2000/svg" xmlns:xlink="http://www.w3.org/1999/xlink" x="0px" y="0px"
	 viewBox="0 0 168 56" style="enable-background:new 0 0 168 56;" xml:space="preserve">
<style type="text/css">
	.st0{fill:#22AE73;}
</style>
<path class="st0" d="M150.7,9.5l12.4,18.6l-12.4,18.6L84,41.4l-66.7,5.4L4.9,28.1L17.3,9.5L84,14.9L150.7,9.5 M150.7,6.6
	c-0.1,0-0.2,0-0.2,0L84,12L17.6,6.6c-0.1,0-0.2,0-0.2,0c-1,0-1.9,0.5-2.4,1.3L2.5,26.5c-0.6,1-0.6,2.2,0,3.2l12.4,18.6
	c0.5,0.8,1.4,1.3,2.4,1.3c0.1,0,0.2,0,0.2,0L84,44.3l66.4,5.4c0.1,0,0.2,0,0.2,0c1,0,1.9-0.5,2.4-1.3l12.4-18.6c0.6-1,0.6-2.2,0-3.2
	L153.1,7.9C152.5,7.1,151.6,6.6,150.7,6.6L150.7,6.6z M26.1,22.3c0,0.2-0.1,0.3-0.3,0.3h-5.1v4.1h3.9c0.2,0,0.3,0.1,0.3,0.3v2.1
	c0,0.2-0.1,0.3-0.3,0.3h-3.9V36c0,0.2-0.1,0.3-0.3,0.3h-2.1c-0.2,0-0.3-0.1-0.3-0.3V20.2c0-0.2,0.1-0.3,0.3-0.3h7.6
	c0.2,0,0.3,0.1,0.3,0.3V22.3z M37.6,19.9c0.2,0,0.4,0.2,0.4,0.4v13c0,1.9-1,3-3,3h-2.3c-1.9,0-3-1-3-3v-13c0-0.2,0.2-0.4,0.4-0.4h2
	c0.2,0,0.4,0.2,0.4,0.4v12.5c0,0.6,0.3,0.8,0.8,0.8h1.1c0.5,0,0.8-0.3,0.8-0.8V20.3c0-0.2,0.2-0.4,0.4-0.4H37.6z M49.6,19.9
	c0.2,0,0.3,0.1,0.3,0.3v2.1c0,0.2-0.1,0.3-0.3,0.3h-2.4V36c0,0.2-0.1,0.3-0.3,0.3h-2.1c-0.2,0-0.3-0.1-0.3-0.3V22.6h-2.4
	c-0.2,0-0.3-0.1-0.3-0.3v-2.1c0-0.2,0.1-0.3,0.3-0.3H49.6z M61.9,26.6c0,0.8-0.6,1.3-1.3,1.5v0c0.7,0.1,1.3,0.7,1.3,1.5v3.8
	c0,1.9-1,3-3,3H54c-0.2,0-0.3-0.1-0.3-0.3V20.2c0-0.2,0.1-0.3,0.3-0.3h4.9c1.9,0,3,1,3,3V26.6z M59.1,23.4c0-0.5-0.3-0.8-0.8-0.8
	h-1.9v4.1h1.9c0.5,0,0.8-0.3,0.8-0.8V23.4z M59.1,30.3c0-0.5-0.3-0.8-0.8-0.8h-1.9v4.1h1.9c0.5,0,0.8-0.3,0.8-0.8V30.3z M66,22.9
	c0-1.9,1-3,3-3h2.3c1.9,0,3,1,3,3v10.5c0,1.9-1,3-3,3h-2.3c-1.9,0-3-1-3-3V22.9z M70.7,33.7c0.5,0,0.8-0.3,0.8-0.8v-9.5
	c0-0.5-0.3-0.8-0.8-0.8h-1.2c-0.5,0-0.8,0.3-0.8,0.8v9.5c0,0.6,0.3,0.8,0.8,0.8H70.7z M81.1,33.6H86c0.2,0,0.3,0.1,0.3,0.3V36
	c0,0.2-0.1,0.3-0.3,0.3h-7.3c-0.2,0-0.3-0.1-0.3-0.3V20.2c0-0.2,0.1-0.3,0.3-0.3h2.1c0.2,0,0.3,0.1,0.3,0.3V33.6z M101.7,19.9
	c0.3,0,0.4,0.1,0.4,0.4v15.6c0,0.3-0.1,0.4-0.4,0.4h-1.9c-0.3,0-0.4-0.1-0.4-0.4v-9.2h-0.1l-2,9.3c-0.1,0.2-0.2,0.4-0.5,0.4h-1
	c-0.2,0-0.4-0.1-0.5-0.4l-2-9.3h-0.1v9.2c0,0.3-0.1,0.4-0.4,0.4h-1.9c-0.3,0-0.4-0.1-0.4-0.4V20.3c0-0.3,0.1-0.4,0.4-0.4h2.7
	c0.2,0,0.4,0.1,0.5,0.4l2.3,10.2l2.3-10.2c0.1-0.2,0.2-0.4,0.5-0.4H101.7z M113.5,36.3c-0.2,0-0.3-0.1-0.3-0.3l-0.6-3H109l-0.6,3
	c0,0.2-0.1,0.3-0.3,0.3h-2.2c-0.2,0-0.3-0.1-0.3-0.3l3.4-15.8c0-0.2,0.2-0.3,0.3-0.3h2.9c0.2,0,0.3,0.1,0.3,0.3L116,36
	c0,0.2,0,0.3-0.3,0.3H113.5z M110.8,23.5l-1.3,7.2h2.6L110.8,23.5z M125.7,19.9c0.2,0,0.3,0.1,0.3,0.3v2.1c0,0.2-0.1,0.3-0.3,0.3
	h-2.4V36c0,0.2-0.1,0.3-0.3,0.3h-2.1c-0.2,0-0.3-0.1-0.3-0.3V22.6h-2.4c-0.2,0-0.3-0.1-0.3-0.3v-2.1c0-0.2,0.1-0.3,0.3-0.3H125.7z
	 M137.8,25.1c0,0.2-0.1,0.3-0.3,0.3h-2.1c-0.2,0-0.3-0.1-0.3-0.3v-1.6c0-0.5-0.3-0.8-0.8-0.8h-1.1c-0.6,0-0.8,0.3-0.8,0.8v9.4
	c0,0.6,0.3,0.8,0.8,0.8h1.1c0.5,0,0.8-0.3,0.8-0.8v-1.6c0-0.2,0.1-0.3,0.3-0.3h2.1c0.2,0,0.3,0.1,0.3,0.3v2.2c0,1.9-1,3-3,3h-2.3
	c-1.9,0-3-1-3-3V22.9c0-1.9,1-3,3-3h2.3c1.9,0,3,1,3,3V25.1z M147.3,20.2c0-0.2,0.1-0.3,0.3-0.3h2.1c0.2,0,0.3,0.1,0.3,0.3V36
	c0,0.2-0.1,0.3-0.3,0.3h-2.1c-0.2,0-0.3-0.1-0.3-0.3v-6.5h-2.6V36c0,0.2-0.1,0.3-0.3,0.3h-2.1c-0.2,0-0.3-0.1-0.3-0.3V20.2
	c0-0.2,0.1-0.3,0.3-0.3h2.1c0.2,0,0.3,0.1,0.3,0.3v6.5h2.6V20.2z"/>
</svg>
